<?xml version="1.0" encoding="UTF-8" standalone="no"?>
<svg
   width="62"
   height="62"
   viewBox="0 0 62 62"
   fill="none"
   version="1.1"
   id="svg28"
   xmlns="http://www.w3.org/2000/svg"
   xmlns:svg="http://www.w3.org/2000/svg">
  <defs
     id="defs28" />
  <path
     d="m 12.046289,56.42151 c -1.732072,0 -3.3919372,-0.507788 -4.9796449,-1.305797 L 5.9841165,54.607826 C 5.767605,54.53537 5.6232707,54.462815 5.4067592,54.390259 3.3860384,53.59225 0.21061286,48.514074 0.21061286,46.192601 c 0,-2.611593 1.80421934,-4.570289 4.47446454,-4.570289 4.1136188,0 4.1136188,4.933066 7.8664116,4.933066 1.732072,0 1.732072,-1.523463 1.732072,-2.82926 0,-4.062601 -3.897187,-9.213233 -6.2787237,-12.40527 -1.5877177,-2.103806 -1.5155406,-5.731075 -1.5155406,-8.342669 0,-5.295843 3.8249203,-12.187644 9.8149653,-12.187644 4.185816,0 10.320076,3.844875 10.320076,8.48782 0,2.103806 -2.020701,4.062501 -4.041402,4.062501 -2.670216,0 -4.113659,-2.82926 -5.340531,-2.82926 -1.154714,0 -1.659815,1.088231 -1.659815,2.031251 0,1.233341 0.721672,4.642944 1.226872,5.65852 0.649515,1.233341 1.731972,2.103806 2.30933,3.409702 1.659915,3.699725 4.691016,9.721022 4.691016,13.710968 0,0.435332 -0.07216,0.870564 -0.144315,1.305896 -1.299029,5.65852 -6.35093,9.793577 -11.619204,9.793577 z"
     fill="#e86ba7"
     id="path26"
     style="stroke-width:0.995272" />
  <path
     d="m 41.357549,35.999423 c 0.773028,-0.405772 1.48196,0.574869 1.466832,1.451405 -0.005,0.289027 -0.01085,0.563026 -0.01632,0.819408 -0.0098,0.456929 -0.01831,0.857725 -0.01861,1.187061 -0.05424,2.54292 -0.0043,5.27952 0.582234,7.951626 0.411147,1.968947 1.140283,4.07136 2.49674,5.85867 l 0.0096,0.01274 0.0099,0.01254 c 0.884101,1.123264 2.108186,2.240159 3.653943,2.821995 l 0.01264,0.0048 0.01274,0.0046 c 1.672654,0.601045 3.628663,0.443693 5.165164,-0.279372 l 0.005,-0.0024 c 1.493008,-0.708136 2.902811,-1.610649 4.146005,-2.777804 l 0.01692,-0.01582 0.01642,-0.01632 c 0.331725,-0.327842 0.905599,-1.007215 1.399652,-1.646777 0.255585,-0.330729 0.515152,-0.683553 0.73242,-1.010002 0.176761,-0.265539 0.43155,-0.66723 0.573874,-1.067131 0.811246,-2.172081 -0.152177,-4.185119 -1.66091,-5.219007 -1.504752,-1.031102 -3.714057,-1.208758 -5.468423,0.258273 -0.555162,0.464195 -0.949887,1.040059 -1.202189,1.40821 l -0.02329,0.03404 c -0.298084,0.434437 -0.45046,0.647226 -0.61687,0.800299 -0.05295,0.04747 -0.106295,0.09365 -0.16004,0.138741 -0.04628,-0.137248 -0.09465,-0.289824 -0.145409,-0.459517 -0.371137,-1.437173 -0.476437,-3.014978 -0.529883,-4.698879 -0.02608,-1.221099 -0.01304,-2.460213 4.98e-4,-3.733863 l 1.99e-4,-0.01991 c 0.01344,-1.260214 0.02727,-2.554764 -3.98e-4,-3.840556 l -4.98e-4,-0.01493 c -0.05613,-1.885742 -0.278875,-4.158147 -1.343717,-6.196962 l -0.009,-0.01682 c -0.615752,-1.14918 -1.60764,-2.308772 -2.920504,-2.996505 -1.01468,-0.534361 -2.221049,-0.902214 -3.436276,-0.902214 h -0.05534 l -0.05534,0.0034 c -2.234386,0.138044 -4.197859,1.22299 -5.683203,2.338491 l -0.01065,0.0081 -0.01065,0.0083 c -0.09803,0.07584 -0.195073,0.152774 -0.291216,0.230505 -0.350038,-0.759791 -0.353621,-2.159343 -0.357602,-3.748095 -0.0095,-3.724507 -0.0216,-8.488775 -4.505497,-8.488775 -3.536301,0 -3.969344,3.699725 -3.969344,6.529084 0,0.458223 -0.0011,0.92212 -0.0022,1.390196 -0.0079,3.310474 -0.01632,6.830353 0.363075,10.071954 0.02488,0.300473 0.05842,0.592386 0.09166,0.881612 0.063,0.548495 0.124807,1.087435 0.124807,1.657427 v 1.450907 l -0.144314,2.901816 v 1.450907 c 0,1.160687 0.09017,2.321472 0.180443,3.482159 0.09017,1.160686 0.180443,2.321472 0.180443,3.482158 0,0.445185 -0.01802,0.939338 -0.03702,1.461557 -0.123414,3.392783 -0.289923,7.969343 4.150583,7.969343 4.463496,0 4.752225,-2.972579 5.075887,-6.305447 0.03752,-0.385469 0.07544,-0.775715 0.120329,-1.166757 0.07216,-0.943021 0.144314,-1.886141 0.144314,-2.82926 0,-0.716596 -0.07046,-1.433192 -0.141727,-2.158546 -0.07305,-0.74327 -0.147001,-1.495695 -0.147001,-2.266633 0,-0.670714 0.438019,-3.396266 1.184373,-4.914654 0.421797,-0.632296 0.639662,-1.07559 1.046728,-1.289275 z"
     fill="#e86ba7"
     id="path27"
     style="stroke-width:0.995272" />
  <path
     fill-rule="evenodd"
     clip-rule="evenodd"
     d="m 42.861206,19.975841 c 0.02757,0.0093 0.05613,0.01652 0.08539,0.0217 0.533665,0.09336 1.056681,0.05404 1.52197,0.0018 0.120727,-0.01354 0.236278,-0.02767 0.347948,-0.0414 0.341876,-0.0419 0.648021,-0.07932 0.958546,-0.08191 0.87564,-0.0071 1.646081,-0.27579 2.345856,-0.662055 0.17059,-0.09415 0.342374,-0.187609 0.514954,-0.281463 0.791142,-0.430257 1.597014,-0.868475 2.36606,-1.422443 1.062752,-0.765564 2.201841,-1.607763 2.67151,-3.162676 0.183428,-0.607146 0.139835,-1.280448 -0.09087,-1.874346 -0.311918,-0.803075 -1.021646,-1.769554 -1.848319,-2.211535 -0.632993,-0.3384325 -1.27992,-0.5349091 -1.948644,-0.6426573 -0.406966,-0.065588 -0.767952,-0.044439 -1.114107,0.06313 -0.336999,0.1047524 -0.631898,0.2830952 -0.916646,0.4881513 l -0.01682,0.0121 c -0.01364,0.0099 -0.02737,0.01974 -0.04111,0.02967 0.07415,-0.3872505 0.166012,-0.7707886 0.274098,-1.1502062 0.16004,-0.5619206 0.130978,-1.2023981 0.0024,-1.739019 C 47.810097,6.6414146 47.363518,5.6912085 46.743165,5.0217985 46.430351,4.6842131 46.033835,4.3754837 45.565758,4.2450141 45.072004,4.1074038 44.562723,4.1867431 44.092059,4.5163157 c -0.04807,0.033625 -0.100323,0.069218 -0.155461,0.1068166 -0.258274,0.1758765 -0.580841,0.3956445 -0.837024,0.6632692 -0.493655,0.5156505 -0.662851,1.2353018 -0.769445,1.7621989 -0.08181,0.4041501 -0.185519,0.7962873 -0.294203,1.2068171 -0.0209,0.079035 -0.042,0.1587459 -0.0631,0.239353 -0.128888,0.4911668 -0.257676,1.0080713 -0.338293,1.5529035 -0.05165,0.34954 -0.251704,2.733574 -0.276984,5.002068 -0.01264,1.133615 0.01762,2.273301 0.139736,3.130031 0.05982,0.419806 0.148495,0.824882 0.293605,1.135307 0.07276,0.155661 0.180543,0.333615 0.346156,0.470664 0.184623,0.152576 0.419507,0.234586 0.671013,0.20005 0.01811,-0.0025 0.03583,-0.0058 0.05315,-0.01 z"
     fill="#e86ba7"
     id="path28"
     style="stroke-width:0.995272" />
</svg>
