<svg width="262" height="177" viewBox="0 0 262 177" fill="none" xmlns="http://www.w3.org/2000/svg">
    <path fill-rule="evenodd" clip-rule="evenodd"
        d="M192.271 74.2721C192.169 74.1975 192.071 74.1147 191.979 74.0236C190.299 72.3653 189.113 70.4089 188.119 68.6248C187.861 68.1618 187.618 67.7158 187.383 67.2844C186.665 65.9649 186.022 64.7828 185.244 63.6741C183.052 60.5471 182.046 57.1316 181.632 53.6698C181.531 52.8257 181.425 51.9791 181.318 51.1291C180.827 47.2311 180.327 43.261 180.327 39.1285C180.327 33.4179 180.404 27.242 184.68 21.6392C186.35 19.4515 188.827 17.9021 191.499 17.2181C195.112 16.2932 200.306 16.3672 203.953 18.1835C206.745 19.5744 209.074 21.3739 211.146 23.4755C212.407 24.7546 213.246 26.0898 213.744 27.5908C214.23 29.0524 214.349 30.551 214.349 32.0808L214.349 32.171C214.349 32.2445 214.349 32.3183 214.349 32.3923C215.523 31.149 216.638 29.8519 217.698 28.508C219.268 26.5175 221.593 24.9998 223.805 24.0984C226.614 22.954 231.084 22.1346 235.008 22.643C236.987 22.8994 239.076 23.5256 240.72 24.8575C242.454 26.2623 243.464 28.271 243.498 30.7764C243.501 31.032 243.508 31.3076 243.516 31.5987C243.551 32.9605 243.596 34.6622 243.303 36.2491C242.741 39.3068 240.639 41.7288 239.057 43.4408C237.844 44.754 236.728 46.1148 235.56 47.5395C235.335 47.8137 235.108 48.0903 234.878 48.3694C233.478 50.07 231.987 51.8355 230.276 53.5005C229.178 54.5686 221.304 61.3123 213.394 67.1435C209.442 70.0573 205.359 72.8342 202.038 74.5689C200.411 75.419 198.762 76.1294 197.304 76.3999C196.572 76.5356 195.674 76.6032 194.773 76.3618C193.769 76.0926 192.886 75.466 192.371 74.4857C192.334 74.4153 192.301 74.3441 192.271 74.2721Z"
        fill="#E86BA7" />
    <path
        d="M239.575 129.285C237.557 126.152 236.17 122.771 234.153 119.638C233.504 118.631 226.737 107.635 224.723 108.932C223.605 109.652 221.864 112.357 227.927 123.49C230.979 128.965 241.477 137.399 232.638 143.092C231.743 143.669 231.112 143.917 230.113 144.086C221.054 145.014 218.266 139.211 214.014 132.61C209.978 126.345 203.929 121.377 199.893 115.111C198.668 113.209 197.778 111.091 196.481 109.077C194.175 105.497 190.868 99.8706 195.678 96.7718C200.937 93.3846 205.585 95.9312 209.059 100.342C209.604 100.941 211.517 103.666 212.636 102.946C213.978 102.081 211.983 88.1692 218.136 84.2055C219.926 83.0525 222.877 83.2097 224.868 83.3519C232.057 83.9451 234.661 89.708 238.048 94.9664C239.562 97.3159 241.674 99.1212 243.188 101.471C244.557 103.596 245.703 105.866 246.776 108.024C250.461 115.465 261.916 128.825 251.623 135.455C245.917 139.13 242.457 133.76 239.575 129.285Z"
        fill="#E86BA7" />
    <path
        d="M169.681 154.908C169.681 149.984 170.08 145.06 172.342 140.802C172.875 139.87 173.141 138.938 173.407 137.874C175.004 131.486 178.464 128.691 184.187 125.763C186.715 124.565 189.51 123.102 192.305 123.102C199.89 123.102 207.21 130.82 207.21 138.406C207.21 153.844 190.841 155.84 190.841 159.034C190.841 160.365 193.103 161.296 194.301 161.296C197.495 161.296 204.681 154.243 208.807 154.243C212.799 154.243 215.062 158.235 215.062 161.829C215.062 163.559 214.263 165.688 213.465 167.285C209.073 175.669 199.225 177 190.841 177C181.525 177 169.681 163.958 169.681 154.908ZM193.236 140.136C193.236 138.805 192.571 137.741 191.373 137.741C189.244 137.741 186.715 141.068 186.715 143.463C186.715 144.661 187.78 145.06 188.578 145.06C190.708 145.06 193.236 142.798 193.236 140.136Z"
        fill="#E86BA7" />
    <path
        d="M133.748 105.535C133.748 100.877 136.676 96.7518 141.733 96.7518C143.197 96.7518 144.661 97.4173 145.858 98.2158C149.585 100.744 151.182 118.311 151.847 121.106C151.98 121.638 152.512 124.034 153.311 124.034C159.3 123.768 161.296 89.8315 173.54 89.8315C177.798 89.8315 179.794 93.5579 179.794 97.4173C179.794 103.406 177.133 108.862 174.072 114.053C171.41 118.577 170.079 126.03 168.216 131.486C167.152 134.414 165.821 137.342 164.091 140.004C161.695 143.597 159.3 151.316 157.836 155.841C156.372 160.365 154.642 161.43 149.718 161.43C145.991 161.43 143.729 159.168 142.265 155.841C140.269 151.05 140.801 145.992 139.071 141.068C137.075 135.745 138.006 131.353 136.676 126.829C134.679 120.307 133.748 112.323 133.748 105.535Z"
        fill="#E86BA7" />
    <path
        d="M40.7232 149.453C40.5901 149.054 40.5901 148.521 40.5901 148.122C40.5901 143.73 42.054 139.605 42.4533 135.213C43.1187 126.563 41.9209 117.247 43.5179 108.863C44.0503 105.935 44.8487 89.5655 44.8487 85.3069C44.8487 80.7821 46.3126 76.5234 51.5029 76.5234C52.0352 76.5234 52.7006 76.6565 53.233 76.7896C58.6893 78.5197 59.8871 96.0866 59.8871 101.144L59.4878 104.205C59.4878 104.604 59.4878 105.136 59.4878 105.669C59.4878 107.266 60.6856 107.798 62.1495 107.798C66.4081 107.798 67.6059 105.402 67.6059 101.41C67.6059 99.4137 66.6743 97.5505 66.6743 95.5543C66.6743 89.9648 68.1382 78.9189 75.4578 78.9189C83.4427 78.9189 82.7773 83.1776 82.7773 89.1663C82.7773 93.558 83.7089 98.2159 83.7089 102.741C83.7089 107.532 82.7773 112.456 82.7773 117.38C82.7773 121.905 81.5796 126.296 81.5796 130.954C81.5796 131.62 81.5796 132.285 81.5796 132.95L81.9788 136.943C81.9788 137.608 81.9788 138.274 81.9788 138.939C81.9788 144.529 81.4465 155.441 73.5946 155.441C72.2638 155.441 71.8645 155.441 70.6668 154.776C64.1457 151.449 64.2788 148.654 64.2788 141.867C64.2788 137.076 65.3435 132.152 65.3435 127.228C65.3435 124.699 64.6781 123.369 61.8833 123.369C56.6931 123.369 57.3585 132.817 57.3585 136.144C57.3585 140.27 56.2938 144.129 56.2938 148.122C56.2938 149.586 56.4269 151.05 56.4269 152.647C56.4269 158.635 52.1683 161.297 46.5788 161.297C39.5254 161.297 41.3886 154.111 40.7232 149.453Z"
        fill="#E86BA7" />
    <path
        d="M130.421 68.4039C130.421 63.4799 130.82 58.5558 133.083 54.2972C133.615 53.3656 133.881 52.434 134.147 51.3693C135.744 44.9814 139.204 42.1866 144.927 39.2588C147.455 38.0611 150.25 36.5972 153.045 36.5972C160.631 36.5972 167.95 44.316 167.95 51.9017C167.95 67.3393 151.581 69.3355 151.581 72.5295C151.581 73.8603 153.843 74.7919 155.041 74.7919C158.235 74.7919 165.422 67.7385 169.547 67.7385C173.54 67.7385 175.802 71.731 175.802 75.3242C175.802 77.0543 175.004 79.1836 174.205 80.7806C169.813 89.1648 159.965 90.4957 151.581 90.4957C142.265 90.4957 130.421 77.4536 130.421 68.4039ZM153.977 53.6318C153.977 52.3009 153.311 51.2363 152.113 51.2363C149.984 51.2363 147.455 54.5633 147.455 56.9588C147.455 58.1566 148.52 58.5558 149.319 58.5558C151.448 58.5558 153.977 56.2934 153.977 53.6318Z"
        fill="#E86BA7" />
    <path
        d="M96.8999 96.7905C97.3032 91.0822 103.86 85.1416 104.385 77.7075C104.582 74.9197 103.698 72.3223 103.886 69.6673C104.027 67.676 104.689 65.855 104.83 63.8638C104.971 61.8725 104.214 51.8129 103.663 50.173C102.323 46.4761 94.4825 47.9234 95.2047 37.7015C95.8051 29.2054 100.851 31.4297 105.181 26.7993C107.199 24.6738 109.214 18.8126 110.748 15.9858C112.433 12.903 114.593 10.6541 116.658 7.86493C120.04 3.43436 124.817 1.90413 130.393 2.29809C135.039 2.62639 140.333 7.0029 139.986 11.9147C139.367 20.6763 126.982 18.4671 126.598 23.9099C126.56 24.4409 126.665 24.8486 126.769 25.2562C130.527 28.7236 135.354 30.2655 134.932 36.2393C134.097 48.0542 122.658 41.9093 122.189 48.5469C121.842 53.4587 122.007 58.6735 121.65 63.7181C121.313 68.4972 122.321 73.1045 121.993 77.7508C121.674 82.2644 118.156 94.29 115.902 97.8663C113.8 101.187 108.55 105.619 104.435 105.328C99.3904 104.971 96.5434 101.835 96.8999 96.7905Z"
        fill="#E86BA7" />
    <path
        d="M49.9559 59.7686C46.7817 49.4669 46.64 37.256 53.8673 28.6232C55.4711 26.5972 57.251 24.2385 59.7946 23.4547C62.7198 22.5534 66.0273 23.3447 68.9525 22.4434C70.3515 22.0123 71.5545 20.9453 73.0807 20.4751C79.9486 18.3589 85.9999 29.8631 87.6065 35.0775C88.743 38.7658 89.1163 42.6892 90.2528 46.3775C90.9973 48.794 92.1235 51.0929 92.9072 53.6365C93.6518 56.053 93.7996 58.7926 94.329 61.4146C95.1918 66.0227 95.6834 72.1378 90.2146 73.8229C87.0351 74.8026 85.3714 73.9226 83.0222 71.722C80.2228 68.9639 77.6111 70.8827 74.1772 71.9408C70.7433 72.9988 67.3485 74.1841 63.7475 73.344C55.7529 71.3511 52.4639 67.9083 49.9559 59.7686ZM67.2064 36.2107C61.6104 37.935 62.2114 48.4726 63.5438 52.7968C64.7586 56.7394 67.0685 58.8128 71.2656 57.5196C76.9888 55.7562 76.1149 47.9486 74.7433 43.4972C73.8028 40.4448 71.4035 34.9175 67.2064 36.2107Z"
        fill="#E86BA7" />
    <path
        d="M89.8807 149.6C86.7065 139.298 86.5648 127.087 93.7921 118.454C95.3959 116.428 97.1758 114.07 99.7194 113.286C102.645 112.384 105.952 113.176 108.877 112.274C110.276 111.843 111.479 110.776 113.006 110.306C119.873 108.19 125.925 119.694 127.531 124.909C128.668 128.597 129.041 132.52 130.178 136.209C130.922 138.625 132.048 140.924 132.832 143.468C133.577 145.884 133.724 148.624 134.254 151.246C135.117 155.854 135.608 161.969 130.139 163.654C126.96 164.634 125.296 163.754 122.947 161.553C120.148 158.795 117.536 160.714 114.102 161.772C110.668 162.83 107.273 164.015 103.672 163.175C95.6777 161.182 92.3887 157.739 89.8807 149.6ZM107.131 126.042C101.535 127.766 102.136 138.304 103.469 142.628C104.683 146.57 106.993 148.644 111.19 147.351C116.914 145.587 116.04 137.78 114.668 133.328C113.728 130.276 111.328 124.749 107.131 126.042Z"
        fill="#E86BA7" />
    <path
        d="M21.8256 86.3701C18.6316 86.3701 15.5707 85.4386 12.6429 83.9747L10.6466 83.0431C10.2474 82.91 9.9812 82.7769 9.58196 82.6438C5.85564 81.1799 0 71.8641 0 67.6055C0 62.8145 3.32707 59.2213 8.25113 59.2213C15.8368 59.2213 15.8368 68.2709 22.7571 68.2709C25.9511 68.2709 25.9511 65.4762 25.9511 63.0807C25.9511 55.628 18.7647 46.1792 14.3729 40.3235C11.4451 36.4641 11.5782 29.81 11.5782 25.019C11.5782 15.304 18.6316 2.66113 29.6774 2.66113C37.3962 2.66113 48.7083 9.71451 48.7083 18.2318C48.7083 22.0912 44.982 25.6844 41.2556 25.6844C36.3316 25.6844 33.6699 20.4942 31.4075 20.4942C29.2782 20.4942 28.3466 22.4905 28.3466 24.2205C28.3466 26.4829 29.6774 32.7378 30.609 34.601C31.8068 36.8634 33.803 38.4604 34.8677 40.8559C37.9286 47.6431 43.518 58.6889 43.518 66.0085C43.518 66.807 43.385 67.6055 43.2519 68.404C40.8564 78.7844 31.5406 86.3701 21.8256 86.3701Z"
        fill="#E86BA7" />
</svg>