<svg width="186" height="134" viewBox="0 0 186 134" fill="none" xmlns="http://www.w3.org/2000/svg">
<path d="M133.269 97.867C134.033 97.867 134.457 98.546 134.457 99.3948C134.457 101.092 132.845 102.535 131.487 102.535C130.978 102.535 130.299 102.281 130.299 101.517C130.299 99.9889 131.911 97.867 133.269 97.867Z" fill="white"/>
<path d="M109.427 44.2239C109.427 43.3752 109.002 42.6961 108.239 42.6961C106.881 42.6961 105.269 44.8181 105.269 46.3459C105.269 47.1098 105.948 47.3644 106.457 47.3644C107.815 47.3644 109.427 45.9215 109.427 44.2239Z" fill="white"/>
<path d="M54.1062 33.1128C50.5384 34.2125 50.9216 40.9332 51.771 43.6911C52.5455 46.2057 54.0182 47.5281 56.6941 46.7033C60.3429 45.5786 59.7858 40.599 58.9113 37.76C58.3117 35.8132 56.782 32.288 54.1062 33.1128Z" fill="white"/>
<path d="M77.2252 100.984C76.3757 98.226 75.9926 91.5053 79.5603 90.4056C82.2362 89.5808 83.7659 93.106 84.3655 95.0528C85.2399 97.8918 85.7971 102.871 82.1482 103.996C79.4724 104.821 77.9997 103.498 77.2252 100.984Z" fill="white"/>
<path fill-rule="evenodd" clip-rule="evenodd" d="M8.48749 36.1886C6.64726 28.8904 5.73924 15.3927 14.1274 7.46764C23.084 -0.994398 32.1619 -0.229826 35.8558 1.29304C36.0362 1.3674 36.2176 1.42656 36.408 1.46906C39.8071 2.22788 46.4626 5.0418 50.3652 11.0151C51.1999 12.2926 52.908 12.8413 54.3697 12.4039C57.785 11.3817 62.9883 11.2154 68.2971 14.7358C69.7848 15.7223 71.9368 15.2738 72.7804 13.7003C75.1666 9.24926 79.2936 3.39539 84.2583 1.40869C90.4684 -1.07637 98.1906 0.27113 101.533 1.32514C101.706 1.37969 101.869 1.45376 102.023 1.54929C104.971 3.37557 110.68 8.34258 111.673 14.8017C111.871 15.7927 112.094 17.5968 111.989 19.3104C111.903 20.7148 112.658 22.271 114.027 22.5948C115.233 22.8802 116.792 22.3357 117.308 21.2081C119.466 16.4893 124.535 9.81641 133.031 9.38053C141.375 8.95247 147.012 11.3376 149.678 13.184C150.463 13.7281 151.449 13.9722 152.376 13.7419C158.533 12.2126 169.801 11.7787 175.428 20.2229C181.549 29.407 176.491 40.2068 173.197 44.4587L165.74 52.4333C164.76 53.4808 164.834 55.1309 165.846 56.1472C167.894 58.2043 170.561 61.2057 172.099 63.9701C172.195 64.1424 172.306 64.3036 172.435 64.4524C174.641 66.9879 178.624 72.0225 179.436 74.7425C179.561 75.1612 179.705 75.5773 179.948 75.9404C183.678 81.5118 189.142 93.2132 183.717 99.627C181.718 102.727 176.371 108.629 170.225 108.894C169.482 108.926 168.756 109.183 168.194 109.672C166.825 110.862 164.757 112.332 162.679 113.013C161.212 113.494 159.778 114.717 159.492 116.234C158.359 122.229 153.957 131.049 142.276 133.43C129.694 135.993 119.348 129.348 114.737 124.776C114.009 124.054 112.953 123.754 111.952 123.973C109.544 124.498 105.933 124.881 102.854 124.03C101.979 123.788 101.028 123.886 100.241 124.338C97.2477 126.06 92.0107 127.769 87.375 125.261C86.5968 124.84 85.6762 124.717 84.8287 124.971C80.3683 126.306 72.0468 126.814 65.1168 120.884C64.3288 120.21 63.2345 119.992 62.2337 120.264C60.2318 120.806 57.342 121.177 54.698 120.399C53.6555 120.092 52.4922 120.226 51.6193 120.874C46.5955 124.602 36.7029 127.974 28.1536 117.804C26.375 114.978 23.6486 106.711 26.7299 95.9857C26.8251 95.6542 26.8583 95.3062 26.8235 94.963C26.4857 91.6394 26.205 86.1193 26.7108 81.713C26.9603 79.54 24.7589 76.7049 22.5822 76.4979C16.4786 75.9177 8.35069 72.9128 3.28906 63.9111C-3.59651 51.6656 1.90769 43.0768 5.52049 40.3131L7.36366 39.14C8.34327 38.5165 8.77146 37.3148 8.48749 36.1886ZM75.1734 66.4698C74.1332 68.3167 73.1574 70.0493 73.0373 71.7496C72.8101 74.9669 74.6251 76.9672 77.8413 77.1945C80.465 77.38 83.8119 74.5533 85.1523 72.4357C86.5892 70.1548 88.8322 62.4851 89.0355 59.6064C89.1394 58.1352 89.0332 56.6702 88.9263 55.1948C88.8178 53.6984 88.7086 52.1913 88.817 50.6566C88.9314 49.0372 88.9615 47.3904 88.9915 45.7546V45.7538C89.021 44.1397 89.0503 42.5363 89.1602 40.9806C89.2883 39.167 90.7002 38.8496 92.3142 38.4869C94.4676 38.0029 96.9807 37.4381 97.2849 33.131C97.4878 30.2585 95.7883 28.9928 93.9131 27.596C93.301 27.1402 92.6702 26.6703 92.0807 26.1262C92.014 25.8662 91.9473 25.6062 91.9713 25.2675C92.0793 23.7375 93.6738 23.1555 95.4571 22.5047C97.7198 21.6789 100.286 20.7422 100.507 17.6172C100.728 14.4845 97.3531 11.6932 94.3908 11.4838C90.8361 11.2326 87.7901 12.2085 85.6342 15.0343C85.2182 15.5964 84.7962 16.124 84.3796 16.6449C83.4777 17.7726 82.601 18.8688 81.866 20.2137C81.5321 20.8292 81.1625 21.6702 80.7693 22.565C80.0106 24.2912 79.1641 26.2175 78.3167 27.1103C77.3246 28.1718 76.2735 28.6684 75.3162 29.1208C73.61 29.927 72.2017 30.5924 71.9566 34.0636C71.6557 38.3237 73.6859 39.4059 75.3674 40.3022C76.2592 40.7776 77.0529 41.2006 77.3489 42.0177C77.7003 43.0636 78.1828 49.4794 78.0931 50.7494C78.0482 51.3844 77.9202 51.9923 77.7922 52.6001C77.6642 53.208 77.5362 53.8159 77.4914 54.4509C77.4323 55.2872 77.5399 56.1146 77.6487 56.952C77.7603 57.8102 77.8732 58.6789 77.8097 59.5787C77.6312 62.1057 76.3604 64.3622 75.1734 66.4698ZM133.842 57.3874C133.776 57.3399 133.714 57.287 133.655 57.2289C132.584 56.1713 131.828 54.9235 131.194 53.7857C131.031 53.4933 130.878 53.2115 130.73 52.9389L130.726 52.932L130.725 52.9308C130.267 52.0892 129.857 51.3353 129.362 50.6282C127.964 48.6338 127.322 46.4555 127.059 44.2476C126.995 43.7108 126.927 43.1725 126.859 42.632L126.859 42.6314L126.858 42.6299L126.858 42.6292L126.858 42.6284L126.858 42.6272C126.545 40.1411 126.227 37.609 126.227 34.9734C126.227 31.3312 126.275 27.3924 129.002 23.819C130.067 22.4237 131.646 21.4355 133.349 20.9993C135.652 20.4094 138.964 20.4566 141.289 21.615C143.069 22.5021 144.554 23.6498 145.875 24.9901C146.679 25.8059 147.214 26.6575 147.532 27.6148C147.841 28.547 147.918 29.5028 147.918 30.4784V30.6771C148.666 29.8842 149.377 29.0569 150.053 28.1998C151.054 26.9303 152.536 25.9623 153.946 25.3874C155.737 24.6575 158.587 24.135 161.089 24.4592C162.35 24.6227 163.682 25.0221 164.73 25.8716C165.836 26.7675 166.48 28.0487 166.501 29.6466C166.503 29.8092 166.508 29.9846 166.513 30.1698L166.513 30.171C166.535 31.0395 166.564 32.1248 166.377 33.137C166.019 35.0871 164.679 36.6318 163.67 37.7237C162.897 38.5607 162.186 39.428 161.442 40.3359L161.441 40.3368L161.441 40.3373L161.435 40.3448C161.293 40.5174 161.15 40.6915 161.006 40.8671C160.113 41.9517 159.163 43.0777 158.072 44.1396C157.372 44.8208 152.352 49.1218 147.309 52.8409C144.789 54.6993 142.186 56.4704 140.069 57.5767C139.031 58.1189 137.98 58.5719 137.05 58.7445C136.584 58.831 136.011 58.8742 135.437 58.7202C134.797 58.5485 134.234 58.1489 133.905 57.5236C133.881 57.4788 133.86 57.4333 133.842 57.3874ZM162.272 89.3979C161.729 88.3594 161.186 87.3207 160.543 86.3218L160.515 86.2775L160.499 86.2528L160.425 86.1353C159.612 84.8497 155.737 78.7168 154.532 79.4934C153.818 79.953 152.709 81.6778 156.574 88.7784C157.022 89.583 157.723 90.4879 158.467 91.4485C160.95 94.6565 163.914 98.4861 159.578 101.28C159.007 101.648 158.605 101.807 157.967 101.914C152.675 102.457 150.739 99.3935 148.367 95.6375C148.15 95.295 147.93 94.9468 147.704 94.5951C146.417 92.5971 144.81 90.8059 143.202 89.0148C141.595 87.2237 139.987 85.4325 138.701 83.4346C138.316 82.8367 137.983 82.2053 137.645 81.565C137.298 80.906 136.945 80.2375 136.526 79.5861C135.055 77.3027 132.947 73.7144 136.014 71.738C139.366 69.5777 142.33 71.2019 144.545 74.015C144.598 74.0732 144.671 74.1628 144.759 74.2714L144.76 74.2728C145.253 74.8774 146.221 76.0648 146.825 75.6755C147.098 75.4999 147.154 74.4808 147.232 73.0916C147.398 70.1174 147.658 65.4465 150.332 63.7234C151.473 62.988 153.355 63.0883 154.624 63.179C158.642 63.5106 160.413 66.3761 162.244 69.3374C162.502 69.7542 162.761 70.1728 163.027 70.5866C163.509 71.3357 164.087 71.998 164.665 72.6604L164.666 72.6609C165.243 73.3232 165.821 73.9857 166.304 74.7349C167.177 76.0906 167.907 77.5383 168.591 78.9147C169.042 79.825 169.675 80.8743 170.357 82.0056C173.232 86.7715 176.985 92.992 171.681 96.4094C168.043 98.7535 165.838 95.3284 164 92.4741C163.357 91.4752 162.814 90.4365 162.272 89.3979ZM121.136 99.8192C119.693 102.535 119.439 105.676 119.439 108.816C119.439 114.588 126.99 122.906 132.93 122.906C138.275 122.906 144.554 122.057 147.354 116.71C147.863 115.691 148.372 114.333 148.372 113.23C148.372 110.938 146.929 108.392 144.384 108.392C142.985 108.392 141.033 109.665 139.207 110.856C137.6 111.905 136.089 112.89 135.136 112.89C134.372 112.89 132.93 112.296 132.93 111.447C132.93 110.811 133.95 110.248 135.352 109.475C138.435 107.776 143.366 105.059 143.366 98.2913C143.366 93.4533 138.699 88.5304 133.863 88.5304C132.236 88.5304 130.608 89.3093 129.11 90.0263C128.968 90.0943 128.827 90.1618 128.687 90.2279C125.039 92.0953 122.833 93.8777 121.815 97.9518C121.645 98.6309 121.475 99.225 121.136 99.8192ZM96.5298 77.3266C96.5298 74.3559 98.3964 71.7246 101.621 71.7246C102.554 71.7246 103.487 72.149 104.251 72.6583C106.108 73.9188 107.135 81.0391 107.698 84.9398L107.698 84.9407L107.698 84.9414C107.856 86.0302 107.976 86.8683 108.069 87.2573C108.074 87.2771 108.08 87.301 108.086 87.3284L108.087 87.3316C108.196 87.7766 108.524 89.1246 109.002 89.1246C110.567 89.0551 111.705 85.3779 113.039 81.0621C114.961 74.8484 117.293 67.311 121.899 67.311C124.614 67.311 125.887 69.6876 125.887 72.149C125.887 75.9685 124.19 79.4485 122.239 82.7588C121.112 84.6747 120.359 87.4138 119.633 90.0569C119.265 91.3948 118.904 92.7082 118.505 93.8778C117.826 95.7451 116.978 97.6124 115.875 99.31C114.452 101.446 113.029 105.866 112.086 108.794L112.084 108.799C112.016 109.011 111.95 109.215 111.887 109.41C110.954 112.296 109.851 112.975 106.711 112.975C104.336 112.975 102.893 111.532 101.96 109.41C101.286 107.793 101.064 106.128 100.841 104.454C100.642 102.964 100.443 101.467 99.9237 99.989C99.2119 98.0902 99.084 96.3773 98.961 94.7314C98.8642 93.4344 98.7704 92.179 98.3965 90.9071C97.1237 86.748 96.5298 81.6554 96.5298 77.3266ZM37.1368 104.488C37.1368 104.743 37.1368 105.082 37.2217 105.337C37.3157 105.995 37.3305 106.733 37.3456 107.482C37.3986 110.114 37.4545 112.891 40.955 112.891C44.5185 112.891 47.2337 111.193 47.2337 107.374C47.2337 106.854 47.2115 106.355 47.1899 105.868C47.1691 105.402 47.1488 104.945 47.1488 104.488C47.1488 103.225 47.3157 101.984 47.484 100.732C47.6551 99.4589 47.8276 98.1755 47.8276 96.8491C47.8276 96.6564 47.8241 96.4315 47.8202 96.1819C47.7813 93.6824 47.7038 88.7008 50.7124 88.7008C52.4942 88.7008 52.9184 89.5496 52.9184 91.1622C52.9184 92.7432 52.7464 94.3242 52.5756 95.8944C52.407 97.4432 52.2397 98.9815 52.2397 100.499L52.2396 100.753C52.238 104.898 52.2373 106.652 56.3123 108.732C57.0759 109.156 57.3305 109.156 58.179 109.156C63.185 109.156 63.5243 102.196 63.5243 98.6315V97.3583L63.2698 94.812V93.5388C63.2698 92.0427 63.4635 90.5896 63.6558 89.1471C63.8453 87.7253 64.0334 86.3137 64.0334 84.8813C64.0334 83.3003 64.1839 81.7193 64.3334 80.1491C64.4809 78.6004 64.6273 77.0619 64.6273 75.5447C64.6273 74.091 64.4766 72.6158 64.3271 71.1517C64.1797 69.7092 64.0334 68.2771 64.0334 66.8871C64.0334 66.6083 64.0357 66.3353 64.0379 66.0689L64.0379 66.0674C64.066 62.6849 64.0853 60.3515 59.3668 60.3515C54.7002 60.3515 53.7669 67.3964 53.7669 70.9613C53.7669 71.5979 53.9154 72.2132 54.0639 72.8286C54.2123 73.444 54.3608 74.0593 54.3608 74.6959C54.3608 77.2422 53.5972 78.77 50.8821 78.77C49.9488 78.77 49.1851 78.4305 49.1851 77.412V76.4783L49.4397 74.5261C49.4397 71.3008 48.6761 60.0969 45.1973 58.9935C44.8579 58.9086 44.4337 58.8237 44.0943 58.8237C40.7853 58.8237 39.8519 61.5398 39.8519 64.4257C39.8519 67.1418 39.3429 77.5818 39.0035 79.4491C38.3925 82.6577 38.4231 86.0803 38.4537 89.4968C38.474 91.7739 38.4944 94.0484 38.3247 96.2549C38.2167 97.4432 37.9866 98.6009 37.7574 99.7539C37.4462 101.319 37.1368 102.875 37.1368 104.488ZM94.4087 53.6454C94.4087 50.5049 94.6633 47.3644 96.1057 44.6483C96.4451 44.0542 96.6148 43.4601 96.7845 42.781C97.8026 38.7069 100.009 36.9244 103.657 35.0571C103.797 34.991 103.938 34.9235 104.08 34.8555C105.578 34.1385 107.205 33.3596 108.833 33.3596C113.669 33.3596 118.336 38.2825 118.336 43.1205C118.336 49.8881 113.405 52.6055 110.322 54.3046C108.92 55.0775 107.899 55.6397 107.899 56.2766C107.899 57.1254 109.342 57.7196 110.105 57.7196C111.059 57.7196 112.569 56.734 114.177 55.6856C116.003 54.494 117.955 53.221 119.354 53.221C121.899 53.221 123.342 55.7674 123.342 58.0591C123.342 59.1625 122.833 60.5205 122.323 61.5391C119.524 66.8864 113.245 67.7352 107.899 67.7352C101.96 67.7352 94.4087 59.4171 94.4087 53.6454ZM43.108 48.1376C41.0843 41.5673 40.9939 33.7794 45.6017 28.2736L45.7295 28.1119C46.7192 26.8585 47.8262 25.4564 49.3807 24.9772C50.3132 24.6898 51.3066 24.6722 52.3 24.6547C53.2934 24.6371 54.2869 24.6196 55.2193 24.3322C55.6556 24.1977 56.062 23.9662 56.4772 23.7297C56.9109 23.4826 57.3543 23.23 57.8513 23.0768C62.2299 21.7272 66.088 29.0643 67.1123 32.39C67.4746 33.5662 67.7152 34.7799 67.9559 35.9935C68.1965 37.2072 68.4372 38.4208 68.7994 39.597C69.0337 40.3577 69.3273 41.1001 69.6246 41.8521C69.9297 42.6235 70.2387 43.4051 70.4918 44.2267C70.7849 45.1783 70.9329 46.2085 71.0828 47.2511C71.1756 47.8968 71.2692 48.5479 71.3982 49.1874C71.9483 52.1264 72.2618 56.0265 68.7751 57.1012C66.748 57.726 65.6873 57.1648 64.1896 55.7613C62.7575 54.3499 61.4025 54.8588 59.792 55.4637C59.3954 55.6126 58.983 55.7675 58.5504 55.9008C58.4135 55.943 58.2767 55.9855 58.14 56.028C56.0899 56.6651 54.0532 57.2981 51.9009 56.7958C46.8039 55.5248 44.707 53.329 43.108 48.1376ZM71.0559 85.5664C66.4481 91.0722 66.5385 98.8602 68.5622 105.43C70.1612 110.622 72.2581 112.818 77.3551 114.089C79.5074 114.591 81.5441 113.958 83.5941 113.321L83.5957 113.32L83.5973 113.32C83.733 113.278 83.8687 113.236 84.0046 113.194C84.437 113.06 84.849 112.906 85.2456 112.757L85.2462 112.756C86.8567 112.152 88.2117 111.643 89.6438 113.054C91.1414 114.458 92.2021 115.019 94.2293 114.394C97.716 113.319 97.4025 109.419 96.8524 106.48C96.7233 105.841 96.6298 105.19 96.537 104.544C96.3871 103.501 96.2391 102.471 95.946 101.519C95.6929 100.698 95.3839 99.9165 95.0789 99.1451C94.7815 98.3931 94.4879 97.6505 94.2536 96.8898C93.8913 95.7136 93.6507 94.5 93.41 93.2863C93.1694 92.0727 92.9288 90.859 92.5665 89.6829C91.5421 86.3572 87.6841 79.02 83.3055 80.3696C82.8084 80.5229 82.3651 80.7754 81.9314 81.0225C81.5162 81.259 81.1098 81.4905 80.6735 81.625C79.7411 81.9124 78.7477 81.93 77.7543 81.9475C76.7609 81.9651 75.7674 81.9826 74.8349 82.27C73.2804 82.7492 72.1734 84.1513 71.1837 85.4047L71.0559 85.5664ZM25.1735 65.1037C23.1371 65.1037 21.1856 64.5095 19.319 63.5759L18.0463 62.9817C17.919 62.9393 17.8129 62.8968 17.7069 62.8544C17.6009 62.812 17.4946 62.7695 17.3675 62.7271C14.9918 61.7934 11.2585 55.852 11.2585 53.1359C11.2585 50.0803 13.3797 47.7885 16.519 47.7885C18.9927 47.7885 20.2011 49.2985 21.3818 50.7737C22.5095 52.1828 23.612 53.5603 25.7674 53.5603C27.8037 53.5603 27.8037 51.7778 27.8037 50.25C27.8037 45.578 23.377 39.6759 20.5669 35.9291L20.422 35.7359C18.632 33.3755 18.6365 29.3762 18.6399 26.3573L18.6399 26.3551C18.6401 26.2265 18.6402 26.0997 18.6402 25.9749C18.6402 19.7788 23.1371 11.7154 30.1794 11.7154C35.1006 11.7154 42.3126 16.2139 42.3126 21.6461C42.3126 24.1076 39.9369 26.3993 37.5612 26.3993C35.6901 26.3993 34.3314 25.2234 33.2336 24.2733C32.4894 23.6293 31.8652 23.089 31.2825 23.089C29.9249 23.089 29.331 24.3622 29.331 25.4656C29.331 26.9086 30.1794 30.8978 30.7734 32.0861C31.1237 32.748 31.5811 33.3206 32.0391 33.894C32.5796 34.5706 33.1211 35.2484 33.4885 36.0754C33.7364 36.6253 34.0103 37.219 34.2996 37.8462C36.2879 42.1557 39.0036 48.0421 39.0036 52.1173C39.0036 52.6266 38.9187 53.1359 38.8339 53.6451C37.3066 60.2656 31.3673 65.1037 25.1735 65.1037Z" fill="white"/>
</svg>
